<svg width="32" height="32" viewBox="0 0 32 32" fill="none" xmlns="http://www.w3.org/2000/svg">
  <!-- Background with brand gradient -->
  <defs>
    <linearGradient id="brandGrad" x1="0" y1="0" x2="32" y2="32" gradientUnits="userSpaceOnUse">
      <stop offset="0%" stop-color="#0ea5e9"/>
      <stop offset="100%" stop-color="#0369a1"/>
    </linearGradient>
  </defs>
  <rect width="32" height="32" rx="8" fill="url(#brandGrad)"/>
  <!-- Headphones icon -->
  <g stroke="white" stroke-width="1.8" stroke-linecap="round" stroke-linejoin="round" fill="none">
    <path d="M7 20v-4a9 9 0 0 1 18 0v4"/>
    <path d="M7 20a2 2 0 0 0-2 2v1a2 2 0 0 0 2 2h1a1 1 0 0 0 1-1v-3a1 1 0 0 0-1-1H7z" fill="white" fill-opacity="0.25"/>
    <path d="M25 20a2 2 0 0 1 2 2v1a2 2 0 0 1-2 2h-1a1 1 0 0 1-1-1v-3a1 1 0 0 1 1-1h1z" fill="white" fill-opacity="0.25"/>
  </g>
</svg>
